:FULLY-SPECIFIED
:FORCE-ALL-JOINTS-BE-3DOF
:DEGREES
1019
root 1.1473 15.1628 32.4271 4.81971 -3.43782 3.55077
lfemur 8.44454 0.460772 5.73015
ltibia -5.24792e-14 0 0
lfoot -30.1395 -10.9793 1.42345e-05
ltoes -34.3721 0 0
rfemur -31.5076 -15.9307 -6.02172
rtibia 50.0966 -0 0
rfoot -22.3863 4.71664 0.00135715
rtoes -42.5787 0 0
lowerback -1.40391 -0.133799 0.248089
upperback -0.529814 -0.166578 -5.92419
thorax 0.224345 -0.0904509 -6.28427
lowerneck -7.20964 0.925674 6.22965
upperneck 1.65386 0.543373 3.58564
head 1.75261 0.408983 0.0928068
lclavicle -2.28602e-15 -1.90833e-14 0
lhumerus -58.7518 -46.6571 115.5
lradius 55.6993 -0 0
lwrist 25.1981 0 0
lhand 37.1947 24.8581 0.000311885
lfingers 7.12502 -0 0
lthumb 60.0317 38.6044 0.000157357
rclavicle -2.28602e-15 -1.90833e-14 0
rhumerus 2.76387 -23.8006 0.157034
rradius 27.6028 -0 0
rwrist -10.3178 0 0
rhand -30.6904 -42.8778 -0.000605973
rfingers 7.12502 -0 0
rthumb -3.98426 -72.8201 -0.000578838
1020
root 1.14726 15.1624 32.4293 4.81497 -3.42455 3.54005
lfemur 8.45569 0.447175 5.74026
ltibia -5.24792e-14 0 0
lfoot -30.1442 -10.9789 1.72863e-05
ltoes -34.3786 0 0
rfemur -31.4892 -15.9451 -6.02256
rtibia 50.1024 -0 0
rfoot -22.3578 4.78386 0.00137202
rtoes -42.4948 0 0
lowerback -1.41893 -0.125954 0.227776
upperback -0.52581 -0.15507 -5.93489
thorax 0.238229 -0.0843613 -6.28386
lowerneck -7.20606 0.917862 6.25451
upperneck 1.65695 0.530771 3.58947
head 1.75293 0.403064 0.0893696
lclavicle -2.28602e-15 -1.90833e-14 0
lhumerus -58.7492 -46.6766 115.491
lradius 55.7088 -0 0
lwrist 25.2091 0 0
lhand 37.2092 24.888 0.000312892
lfingers 7.12502 -0 0
lthumb 60.0442 38.6213 0.000154914
rclavicle -2.28602e-15 -1.90833e-14 0
rhumerus 2.74434 -23.7921 0.169735
rradius 27.587 -0 0
rwrist -10.2686 0 0
rhand -30.672 -42.834 -0.000653713
rfingers 7.12502 -0 0
rthumb -3.96643 -72.7767 -0.000624523
1021
root 1.14731 15.1621 32.4318 4.81111 -3.41355 3.53031
lfemur 8.46753 0.435924 5.74936
ltibia -5.24792e-14 0 0
lfoot -30.1489 -10.9799 1.99804e-05
ltoes -34.3844 0 0
rfemur -31.4733 -15.9589 -6.02385
rtibia 50.1094 -0 0
rfoot -22.3297 4.85222 0.0013497
rtoes -42.4093 0 0
lowerback -1.43429 -0.118487 0.208096
upperback -0.522134 -0.144079 -5.94556
thorax 0.251895 -0.0785439 -6.28379
lowerneck -7.20159 0.910453 6.27882
upperneck 1.6592 0.518885 3.59288
head 1.75283 0.39745 0.0859136
lclavicle -2.28602e-15 -1.90833e-14 0
lhumerus -58.7455 -46.6933 115.481
lradius 55.7171 -0 0
lwrist 25.2197 0 0
lhand 37.224 24.9174 0.00030543
lfingers 7.12502 -0 0
lthumb 60.0568 38.6373 0.000148327
rclavicle -2.28602e-15 -1.90833e-14 0
rhumerus 2.72658 -23.7854 0.181911
rradius 27.5718 -0 0
rwrist -10.2204 0 0
rhand -30.6548 -42.793 -0.000691972
rfingers 7.12502 -0 0
rthumb -3.94988 -72.7361 -0.00066116
1022
root 1.14747 15.1617 32.4347 4.80816 -3.40498 3.52167
lfemur 8.47994 0.427168 5.75733
ltibia -5.24792e-14 0 0
lfoot -30.1535 -10.9822 2.21174e-05
ltoes -34.3892 0 0
rfemur -31.46 -15.972 -6.02558
rtibia 50.1175 -0 0
rfoot -22.3022 4.92099 0.00129069
rtoes -42.3232 0 0
lowerback -1.4498 -0.111484 0.189273
upperback -0.51883 -0.13373 -5.95608
thorax 0.265194 -0.0730647 -6.28407
lowerneck -7.19629 0.90353 6.30229
upperneck 1.66057 0.507854 3.59583
head 1.75231 0.392204 0.0824764
lclavicle -2.28602e-15 -1.90833e-14 0
lhumerus -58.7408 -46.707 115.469
lradius 55.7241 -0 0
lwrist 25.2298 0 0
lhand 37.2389 24.9457 0.000289775
lfingers 7.12502 -0 0
lthumb 60.0695 38.6522 0.000137923
rclavicle -2.28602e-15 -1.90833e-14 0
rhumerus 2.71078 -23.7807 0.193427
rradius 27.5574 -0 0
rwrist -10.174 0 0
rhand -30.6392 -42.7552 -0.000717233
rfingers 7.12502 -0 0
rthumb -3.93481 -72.6985 -0.000685382
1023
root 1.1478 15.1613 32.4378 4.80618 -3.39897 3.51424
lfemur 8.49281 0.421055 5.76407
ltibia -5.24792e-14 0 0
lfoot -30.1581 -10.9859 2.35038e-05
ltoes -34.3931 0 0
rfemur -31.4494 -15.9843 -6.02775
rtibia 50.1265 -0 0
rfoot -22.2756 4.98944 0.00119697
rtoes -42.2374 0 0
lowerback -1.46532 -0.10503 0.171527
upperback -0.51594 -0.12415 -5.96633
thorax 0.277973 -0.0679899 -6.2847
lowerneck -7.19017 0.89718 6.32467
upperneck 1.66102 0.497813 3.59828
head 1.75134 0.38739 0.0790954
lclavicle -2.28602e-15 -1.90833e-14 0
lhumerus -58.735 -46.7174 115.457
lradius 55.7296 -0 0
lwrist 25.2394 0 0
lhand 37.2537 24.9727 0.000266529
lfingers 7.12502 -0 0
lthumb 60.0822 38.666 0.000124184
rclavicle -2.28602e-15 -1.90833e-14 0
rhumerus 2.69718 -23.7781 0.204145
rradius 27.5439 -0 0
rwrist -10.1297 0 0
rhand -30.6253 -42.721 -0.000725688
rfingers 7.12502 -0 0
rthumb -3.9214 -72.6647 -0.000693544
1024
root 1.14833 15.1609 32.4413 4.80522 -3.39568 3.50814
lfemur 8.50602 0.417734 5.76946
ltibia -5.24792e-14 0 0
lfoot -30.1625 -10.991 2.3958e-05
ltoes -34.3959 0 0
rfemur -31.4418 -15.9955 -6.03035
rtibia 50.1365 -0 0
rfoot -22.2503 5.05684 0.00107191
rtoes -42.1529 0 0
lowerback -1.48067 -0.099209 0.155079
upperback -0.513507 -0.115464 -5.97621
thorax 0.290081 -0.0633859 -6.28568
lowerneck -7.18329 0.891486 6.34568
upperneck 1.66053 0.488901 3.60019
head 1.74995 0.383074 0.0758081
lclavicle -2.28602e-15 -1.90833e-14 0
lhumerus -58.7284 -46.7242 115.443
lradius 55.7336 -0 0
lwrist 25.2483 0 0
lhand 37.2682 24.9982 0.000236612
lfingers 7.12502 -0 0
lthumb 60.0946 38.6783 0.000107738
rclavicle -2.28602e-15 -1.90833e-14 0
rhumerus 2.68596 -23.7776 0.213929
rradius 27.5314 -0 0
rwrist -10.0882 0 0
rhand -30.6134 -42.691 -0.000713365
rfingers 7.12502 -0 0
rthumb -3.90986 -72.6349 -0.000681842
